#!OML:ASF F:\VICON\USERDATA\INSTALL\SteveWalk\SteveWalk.ASF
:FULLY-SPECIFIED
:DEGREES

344
root 0.550993 16.1524 28.8823 16.7441 4.38969 2.86278
lowerback -15.0786 -2.60861 -5.47051
upperback -5.00307 -2.63096 -0.0583165
thorax 3.36961 -1.28869 2.55775
lowerneck -2.42864 -0.574354 -1.33909
upperneck 9.11551 -0.938472 2.77429
head 3.38542 -0.406497 1.10658
rclavicle 2.07047e-014 1.18277e-014
rhumerus -106.885 -38.0507 20.9263
rradius 10.0872
rwrist 71.254
rhand -19.5635 -34.8311
rfingers 7.12502
rthumb 6.76125 -424.703
lclavicle 2.07047e-014 1.18277e-014
lhumerus -15.3078 -6.51255 82.8901
lradius 32.8944
lwrist 2.91217
lhand -20.9852 -18.2701
lfingers 7.12502
lthumb 5.38865 11.6414
rfemur -48.6327 -6.1516 22.6481
rtibia 26.9164
rfoot -12.2364 -3.51492
rtoes -4.84001
lfemur -8.86653 7.98626 -24.6583
ltibia 23.7387
lfoot -25.951 -9.88507
ltoes -18.422
345
root 0.553726 16.1275 29.1009 16.8233 4.89557 2.93502
lowerback -15.196 -2.71607 -5.41583
upperback -4.99351 -2.77255 -0.0339723
thorax 3.45371 -1.36036 2.52184
lowerneck -2.09478 -0.616467 -1.38059
upperneck 8.76767 -0.991133 2.81684
head 3.2039 -0.43641 1.12283
rclavicle -2.17087e-014 -1.99779e-014
rhumerus -107.663 -36.6506 22.5397
rradius 10.2739
rwrist 71.7783
rhand -19.0621 -35.3894
rfingers 7.12502
rthumb 7.24525 -425.245
lclavicle -2.17087e-014 -1.99779e-014
lhumerus -14.3131 -7.24532 82.7402
lradius 33.8635
lwrist 4.05816
lhand -20.7683 -17.9258
lfingers 7.12502
lthumb 5.59802 11.9802
rfemur -48.7173 -6.74006 22.9678
rtibia 24.3277
rfoot -11.6765 -2.12951
rtoes -5.10439
lfemur -7.68382 7.64109 -24.4229
ltibia 22.8895
lfoot -27.2471 -7.95588
ltoes -26.5894
346
root 0.559292 16.0916 29.3254 16.8067 5.45964 2.69574
lowerback -15.3926 -2.6651 -5.00132
upperback -4.70608 -2.75311 0.107198
thorax 3.85229 -1.36377 2.42735
lowerneck -2.66612 -0.82171 -1.6661
upperneck 8.6065 -1.24697 2.87268
head 3.26756 -0.566995 1.18224
rclavicle -1.20293e-014 4.82053e-015
rhumerus -108.837 -35.7304 24.6908
rradius 10.4465
rwrist 72.2354
rhand -18.0204 -35.2731
rfingers 7.12502
rthumb 8.25067 -425.092
lclavicle -1.20293e-014 4.82053e-015
lhumerus -12.7168 -7.88984 82.7618
lradius 34.7414
lwrist 4.6039
lhand -20.7283 -17.4347
lfingers 7.12502
lthumb 5.63671 12.4703
rfemur -49.1822 -7.33344 23.5987
rtibia 22.2794
rfoot -11.576 -0.307268
rtoes -2.11107
lfemur -6.35069 7.23619 -23.8387
ltibia 22.0448
lfoot -25.7729 -9.78898
ltoes -21.5978
347
root 0.568239 16.0694 29.5477 16.8877 6.01266 2.63312
lowerback -15.6206 -2.81757 -4.77066
upperback -4.71302 -2.97989 0.205989
thorax 3.98013 -1.47709 2.34932
lowerneck -2.43564 -0.848069 -1.47874
upperneck 8.42665 -1.27015 2.61615
head 3.15685 -0.584086 1.0628
rclavicle 3.1886e-014 1.08089e-014
rhumerus -108.988 -34.6293 25.6569
rradius 10.5221
rwrist 72.5354
rhand -17.0451 -35.3889
rfingers 7.12502
rthumb 9.19181 -425.169
lclavicle 3.1886e-014 1.08089e-014
lhumerus -11.9885 -8.15695 82.5614
lradius 35.7301
lwrist 5.03143
lhand -20.8058 -17.4464
lfingers 7.12502
lthumb 5.56187 12.4606
rfemur -48.7124 -9.19413 25.2802
rtibia 19.5807
rfoot -12.4248 1.74062
rtoes -12.4357
lfemur -5.40074 6.71362 -23.4721
ltibia 21.7681
lfoot -25.359 -10.0538
ltoes -21.3288
348
root 0.578083 16.0622 29.7652 17.1131 6.48351 2.84813
lowerback -15.6733 -2.97658 -4.75149
upperback -4.82403 -3.19171 0.223003
thorax 3.907 -1.57803 2.3156
lowerneck -2.61084 -0.85624 -1.36532
upperneck 8.55817 -1.27369 2.43619
head 3.23176 -0.587014 0.984501
rclavicle -1.86529e-014 -6.58474e-015
rhumerus -108.879 -33.6318 26.1476
rradius 10.582
rwrist 72.5932
rhand -17.2183 -36.469
rfingers 7.12502
rthumb 9.02472 -426.256
lclavicle -1.86529e-014 -6.58474e-015
lhumerus -11.4085 -8.17456 82.4115
lradius 36.7733
lwrist 5.28385
lhand -20.9294 -17.488
lfingers 7.12502
lthumb 5.44256 12.4221
rfemur -49.0007 -10.9013 26.5452
rtibia 17.9441
rfoot -14.1268 4.12976
rtoes -18.3845
lfemur -4.4575 6.13882 -23.4297
ltibia 21.0851
lfoot -24.8993 -10.1996
ltoes -21.9583
349
root 0.584441 15.9661 29.9931 17.3878 6.82285 3.09504
lowerback -15.7571 -3.0723 -4.76825
upperback -4.94571 -3.31203 0.220794
thorax 3.83265 -1.63364 2.29879
lowerneck -2.86348 -0.874751 -1.40834
upperneck 8.6958 -1.29123 2.37532
head 3.32755 -0.597233 0.972117
rclavicle 4.49367e-015 6.68413e-015
rhumerus -109.963 -32.2395 28.7718
rradius 10.6418
rwrist 74.3918
rhand -17.508 -36.8856
rfingers 7.12502
rthumb 8.74514 -426.684
lclavicle 4.49367e-015 6.68413e-015
lhumerus -10.8623 -8.23965 82.2448
lradius 37.9086
lwrist 5.33142
lhand -21.0898 -17.0109
lfingers 7.12502
lthumb 5.28766 12.9031
rfemur -51.1289 -11.4977 26.865
rtibia 17.2624
rfoot -15.4771 5.26382
rtoes -22.3519
lfemur -3.44298 5.54873 -23.4423
ltibia 20.3457
lfoot -24.3515 -10.4352
ltoes -21.9604
350
root 0.591613 16.0013 30.2322 17.5431 7.10319 3.18914
lowerback -16.0761 -3.14575 -4.63061
upperback -4.92194 -3.41211 0.247835
thorax 4.03028 -1.68614 2.21541
lowerneck -2.95788 -0.85472 -1.43087
upperneck 8.55753 -1.24978 2.25931
head 3.29572 -0.581586 0.938877
rclavicle -1.29068e-014 4.27387e-015
rhumerus -110.772 -31.1573 30.9103
rradius 10.7289
rwrist 75.9784
rhand -17.0281 -37.1029
rfingers 7.12502
rthumb 9.20821 -426.882
lclavicle -1.29068e-014 4.27387e-015
lhumerus -10.4363 -8.11853 82.0173
lradius 39.2109
lwrist 5.20913
lhand -21.0847 -16.3901
lfingers 7.12502
lthumb 5.29253 13.5239
rfemur -50.4724 -11.0141 25.9544
rtibia 16.932
rfoot -17.1107 7.28864
rtoes -8.6688
lfemur -2.31523 4.93546 -23.3119
ltibia 19.6243
lfoot -23.9032 -10.3965
ltoes -23.0917
351
root 0.594866 16.0003 30.467 17.6217 7.26254 3.26354
lowerback -16.2291 -3.23937 -4.54606
upperback -4.91995 -3.54344 0.314382
thorax 4.12341 -1.7521 2.20442
lowerneck -2.92447 -0.764712 -1.32633
upperneck 8.31151 -1.11083 2.00824
head 3.19764 -0.519442 0.842429
rclavicle 2.56146e-014 -7.45443e-015
rhumerus -109.405 -31.1184 29.0402
rradius 10.7642
rwrist 74.3217
rhand -16.5551 -37.7426
rfingers 7.12502
rthumb 9.66459 -427.501
lclavicle 2.56146e-014 -7.45443e-015
lhumerus -10.3093 -7.85604 81.8473
lradius 40.606
lwrist 5.65827
lhand -21.2236 -16.2765
lfingers 7.12502
lthumb 5.15846 13.6407
rfemur -49.9474 -10.3322 25.1588
rtibia 16.5249
rfoot -17.7974 7.55438
rtoes -3.20751
lfemur -1.19294 4.29236 -23.1729
ltibia 19.2946
lfoot -23.8644 -9.8391
ltoes -26.2201
352
root 0.589126 15.9602 30.6865 17.6615 7.20641 3.5293
lowerback -15.9508 -3.2977 -4.79595
upperback -5.07879 -3.60217 0.36006
thorax 3.82732 -1.77388 2.39866
lowerneck -2.76618 -0.734303 -1.25381
upperneck 8.18465 -1.05131 1.72832
head 3.11923 -0.498776 0.740209
rclavicle 3.16534e-014 6.85807e-015
rhumerus -107.117 -31.1983 25.4768
rradius 10.8012
rwrist 71.1145
rhand -16.4412 -38.0355
rfingers 7.12502
rthumb 9.77449 -427.789
lclavicle 3.16534e-014 6.85807e-015
lhumerus -10.4052 -7.94151 81.7484
lradius 41.8903
lwrist 6.66943
lhand -21.6349 -16.6959
lfingers 7.12502
lthumb 4.76133 13.2306
rfemur -50.4759 -9.03887 23.8509
rtibia 18.0969
rfoot -18.3176 6.45401
rtoes -3.15775
lfemur 0.0416651 3.60721 -23.2794
ltibia 18.3009
lfoot -22.7212 -9.94704
ltoes -27.3915
353
root 0.579893 15.9064 30.8973 17.5436 6.99789 3.67999
lowerback -15.3689 -3.23411 -4.95061
upperback -5.23499 -3.53481 0.395233
thorax 3.35649 -1.72963 2.56706
lowerneck -3.04301 -0.808079 -1.2862
upperneck 8.52692 -1.13585 1.55815
head 3.28961 -0.546287 0.688151
rclavicle -1.11576e-014 -4.57205e-015
rhumerus -105.814 -30.9401 23.5484
rradius 10.8612
rwrist 69.3869
rhand -16.2364 -38.091
rfingers 7.12502
rthumb 9.97207 -427.835
lclavicle -1.11576e-014 -4.57205e-015
lhumerus -10.5617 -8.11415 81.6412
lradius 43.1609
lwrist 7.54014
lhand -22.2087 -17.4687
lfingers 7.12502
lthumb 4.20725 12.4695
rfemur -50.2432 -7.40765 22.4882
rtibia 18.7077
rfoot -17.5131 5.12314
rtoes -6.05521
lfemur 0.375316 2.73732 -23.3137
ltibia 18.4909
lfoot -20.1742 -12.0055
ltoes -19.9066
354
root 0.630176 15.8771 31.204 17.5618 8.29022 2.73217
lowerback -16.6058 -3.33914 -2.99728
upperback -5.01107 -3.92305 0.61114
thorax 4.18062 -1.93477 1.55396
lowerneck -3.13263 -0.745913 -1.34301
upperneck 8.42136 -1.04378 1.52295
head 3.26896 -0.503464 0.689724
rclavicle -6.66162e-015 -7.95139e-015
rhumerus -105.791 -30.6007 23.9218
rradius 10.8791
rwrist 69.8703
rhand -15.7718 -37.7738
rfingers 7.12502
rthumb 10.4203 -427.496
lclavicle -6.66162e-015 -7.95139e-015
lhumerus -10.7179 -8.06544 81.5892
lradius 44.4754
lwrist 8.4312
lhand -23.0697 -18.332
lfingers 7.12502
lthumb 3.37582 11.6211
rfemur -50.0567 -9.73664 24.7401
rtibia 19.4211
rfoot -16.5792 7.40588
rtoes -8.46935
lfemur 1.45301 2.02483 -21.8587
ltibia 19.0334
lfoot -21.117 -11.247
ltoes -26.2571
355
root 0.594732 15.8309 31.391 17.2161 7.45827 2.475
lowerback -15.4966 -3.09963 -3.17042
upperback -5.17941 -3.63504 0.82014
thorax 3.42023 -1.7847 1.9869
lowerneck -3.44046 -0.740597 -1.26946
upperneck 8.68089 -1.01708 1.24589
head 3.41404 -0.497236 0.587715
rclavicle 6.97144e-015 3.37934e-015
rhumerus -106.313 -30.0143 25.6609
rradius 10.8698
rwrist 71.6147
rhand -15.5241 -37.2683
rfingers 7.12502
rthumb 10.6592 -426.978
lclavicle 6.97144e-015 3.37934e-015
lhumerus -11.0232 -7.87864 81.5617
lradius 45.593
lwrist 9.37586
lhand -23.9684 -19.0686
lfingers 7.12502
lthumb 2.50786 10.8964
rfemur -49.3808 -5.75737 22.4789
rtibia 20.5885
rfoot -15.2628 3.88189
rtoes -11.6784
lfemur 1.91515 1.81246 -21.5974
ltibia 19.7005
lfoot -19.8218 -11.2977
ltoes -27.7813
356
root 0.614315 15.8062 31.6539 17.2703 7.38125 2.30441
lowerback -15.9069 -3.05801 -2.59981
upperback -5.23544 -3.657 0.900165
thorax 3.55319 -1.79673 1.72876
lowerneck -3.07265 -0.583007 -1.27212
upperneck 8.40375 -0.789986 1.03998
head 3.24272 -0.393536 0.529483
rclavicle 9.64727e-015 -3.97569e-015
rhumerus -106.329 -29.5755 26.5547
rradius 10.848
rwrist 72.6355
rhand -15.3445 -37.2094
rfingers 7.12502
rthumb 10.8325 -426.91
lclavicle 9.64727e-015 -3.97569e-015
lhumerus -11.4644 -7.74022 81.487
lradius 46.5993
lwrist 10.3025
lhand -24.7131 -19.7423
lfingers 7.12502
lthumb 1.78862 10.23
rfemur -49.3659 -5.84712 22.8096
rtibia 22.1441
rfoot -14.5401 3.76943
rtoes -18.3807
lfemur 2.28917 1.3672 -21.3844
ltibia 20.3877
lfoot -18.771 -11.8614
ltoes -28.8931
357
root 0.615969 15.7877 31.9249 17.2052 7.73712 2.31766
lowerback -16.1551 -3.18416 -2.40478
upperback -5.24843 -3.85026 1.00085
thorax 3.67633 -1.89255 1.67585
lowerneck -3.04773 -0.542447 -1.3289
upperneck 8.40815 -0.715285 0.834108
head 3.23741 -0.36598 0.475212
rclavicle 3.03271e-014 -1.23246e-014
rhumerus -105.751 -29.4524 26.012
rradius 10.817
rwrist 72.2274
rhand -15.3967 -37.1277
rfingers 7.12502
rthumb 10.7821 -426.831
lclavicle 3.03271e-014 -1.23246e-014
lhumerus -12.1374 -7.71436 81.48
lradius 47.8156
lwrist 11.2369
lhand -25.2254 -20.3817
lfingers 7.12502
lthumb 1.29388 9.59409
rfemur -49.0787 -6.30384 23.2698
rtibia 23.6263
rfoot -13.3961 2.69444
rtoes -24.9876
lfemur 2.71521 0.661987 -21.101
ltibia 21.3744
lfoot -18.2097 -12.637
ltoes -31.2863
